<svg xmlns="http://www.w3.org/2000/svg" width="106" height="106" fill="none" xmlns:v="https://vecta.io/nano"><circle cx="53" cy="53" r="53" fill="#36536b"/><path fill-rule="evenodd" d="M72.948 45.391v.339a.94.94 0 0 1-.937.938H33.938a.94.94 0 0 1-.937-.937v-.339A5.39 5.39 0 0 1 38.391 40h29.167a5.39 5.39 0 0 1 5.391 5.391zM33 50.885v10.339a5.39 5.39 0 0 0 5.391 5.391h29.167a5.39 5.39 0 0 0 5.391-5.391V50.885a.94.94 0 0 0-.937-.937H33.938a.94.94 0 0 0-.937.938zm9.974 6.563h-2.5a1.64 1.64 0 1 1 0-3.281h2.5a1.64 1.64 0 1 1 0 3.281z" fill="#fff"/></svg>