<svg xmlns="http://www.w3.org/2000/svg" width="96" height="33" fill="none" xmlns:v="https://vecta.io/nano"><path fill-rule="evenodd" d="M19.303 16.08h-4.2l1.406-1.38H24l-1.103 1.091c-.205.186-.342.397-.342.705v6.028C19.059 23.486 16.033 24 12.624 24 5.594 24 0 19.425 0 11.829 0 6.493 4.195 0 13.372 0c4.181 0 7.105 1.284 9.125 2.636l-3.193 3.158V3.891c-1.703-1.527-3.607-2.623-6.879-2.623-5.17 0-8.876 3.967-8.876 9.621 0 5.766 4.097 11.669 11.068 11.669 1.72 0 3.375-.228 4.685-.645V16.08zM33.413 8C28.219 8 25 11.69 25 15.606 25 18.987 27.593 23 32.846 23 37.9 23 41 19.303 41 15.318c0-3.712-3.03-7.317-7.587-7.317V8zm-.862 1.076c3.662 0 5.293 4.638 5.293 7.946 0 4.92-3.797 5.017-4.251 5.017-1.738 0-2.952-1.021-3.861-2.36-.8-1.234-1.582-3.526-1.582-5.766 0-2.231.751-3.32 1.934-4.122.967-.601 1.872-.715 2.466-.715h.001zM67.416 8c-4.384 0-6.755 2.895-6.755 6.128 0 2.461 1.69 5.238 5.177 5.238h.882s-.24.609-.242 1.197c0 .867.299 1.355.933 2.104-6 .381-8.411 2.906-8.411 5.619C59 30.662 61.181 33 65.764 33 71.19 33 74 29.858 74 26.774c0-2.174-1.038-3.366-3.668-5.421-.773-.627-.923-1.026-.923-1.495 0-.66.371-1.1.519-1.275l.008-.01c.164-.181.407-.378.6-.535h0 0c.1-.081.186-.151.24-.202.884-.781 2.131-1.936 2.131-4.242 0-1.582-.631-2.943-2.068-4.218h1.754L73.913 8h-6.497 0zm-1.209 1.029c.796 0 1.46.293 2.161.902.778.732 2.021 2.698 2.021 5.13 0 2.625-1.955 3.344-3.013 3.344-.518 0-1.138-.151-1.664-.526-1.167-.79-2.326-2.892-2.326-5.393 0-2.257 1.289-3.458 2.821-3.458zm2.311 14.663s-.24-.029-.575-.029c-4.502.066-6.142 1.837-6.142 3.895 0 2.484 2.394 4.006 5.526 4.006 2.853 0 4.615-1.554 4.615-3.535 0-1.441-.8-2.251-2.084-3.309-.551-.439-1.341-1.027-1.341-1.027zM81.03 23h-6.367l1.167-1.154c.191-.196.281-.388.281-.669V1.403H74L75.413 0h5.43l-1.148 1.14a.88.88 0 0 0-.304.691v19.09c0 .409.292.83.784.89l1.826.226-.97.963zm.97-7.798C82 10.577 85.822 8 89.421 8h.001c3.817 0 5.478 1.987 6.067 3.96L85.29 15.833c.974 3.597 3.757 5.554 6.644 5.554 1.519 0 2.663-.436 4.065-1.101a7.42 7.42 0 0 1-2.818 2.134c-.986.425-2.038.579-3.316.579C84.742 23 82 19.022 82 15.202zm10.081-3.484c0-1.168-1.396-2.66-3.326-2.66-1.276 0-3.863.899-3.863 4.26 0 .802.17 1.543.17 1.543l6.269-2.382c.499-.184.751-.384.751-.762zM51.413 8C46.219 8 43 11.69 43 15.606 43 18.987 45.593 23 50.846 23 55.9 23 59 19.303 59 15.318c0-3.712-3.03-7.317-7.587-7.317V8zm-.862 1.076c3.662 0 5.293 4.638 5.293 7.946 0 4.92-3.797 5.017-4.251 5.017-1.738 0-2.952-1.021-3.861-2.36-.8-1.234-1.582-3.526-1.582-5.766 0-2.231.751-3.32 1.934-4.122.967-.601 1.872-.715 2.466-.715h.001z" fill="#fff"/></svg>