<svg xmlns="http://www.w3.org/2000/svg" width="140" height="27" fill="none" xmlns:v="https://vecta.io/nano"><path fill-rule="evenodd" d="M39.457 0H22.851l-.754 2.021c6.584.315 11.818 5.302 11.818 11.409 0 5.676-4.522 10.385-10.447 11.274l-.711 2.169h16.7a3.49 3.49 0 0 0 2.497-1.044c.663-.672 1.036-1.585 1.036-2.538V3.57c0-1.989-1.583-3.57-3.534-3.57zM9.054 13.431c0 4.997 3.517 9.407 8.41 11.01l-.854 2.432H3.525C1.578 26.873 0 25.248 0 23.264V3.597C-.001 1.614 1.577.004 3.525.001h13.508l-.847 2.4c-4.078 2.204-7.132 6.637-7.132 11.03zm122.499 2.961h-7.715v10.59h7.668c2.777 0 2.964-2.731 2.964-4.217V19.65c0-1.869-.941-3.258-2.917-3.258zm.518 6.661v-3.019c.048-.67-.422-1.437-1.129-1.437h-4.706v6.181h4.518c.846 0 1.317-.815 1.317-1.725zm-11.546-.187c.567-.482.944-1.202.944-3.126 0-2.164-1.463-3.366-3.161-3.366h-6.938v10.626h2.36v-3.126h4.057c.945 0 1.417.769 1.417 1.202v1.923h2.265v-2.212c0-.625-.189-1.537-.944-1.922zm-6.796-1.202h4.341c.898 0 1.133-1.106 1.133-1.634s-.235-1.443-1.416-1.443h-4.058v3.077zm-8.917-5.269h-3.104l-4.186 9.1v1.485h1.881l.847-1.916h6.011l.857 1.916h2.447l-4.753-10.585zm-1.552 1.964l-2.022 4.502h4.036l-2.014-4.502zM86.61 26.99V16.383h2.404v3.984h1.036l4.099-3.984h3.204l-5.043 4.992 4.194 4.224v1.392h-1.791l-4.475-4.417h-1.225v4.417H86.61zm-12.626-2.505v-5.598c0-1.195 1.268-2.487 2.396-2.487h5.781c1.504.047 2.395 1.627 2.395 2.536v.908h-2.395c-.049-.478-.471-1.195-.846-1.195h-4.136c-.939 0-.798.957-.798.957v4.21c0 .766.469.957.751.957h4.088c.893 0 .988-.766.988-1.244h2.349v.957c0 1.579-1.08 2.488-2.395 2.488h-5.734c-1.786 0-2.444-1.388-2.444-2.488zm-5.82-8.112h-3.114L60.188 27h2.548l.85-1.923h6.03l.86 1.923h2.454l-4.767-10.627zm-1.558 1.971l-2.029 4.521h4.011l-1.982-4.521zm-9.112-1.955h-7.579v10.595h2.401v-2.973h5.178c1.412 0 3.013-.814 3.013-3.787.001-3.02-1.741-3.835-3.012-3.835zm-5.178 5.418h4.613c1.036 0 1.036-1.102 1.036-1.582s0-1.63-1.177-1.63h-4.472v3.212zM49.914.174v10.595h2.401V6.55h6.26v4.219h2.401V.174h-2.401v4.171h-6.26V.174h-2.401zM65.093.167h8.011v2.21h-7.257v1.968h6.032v2.208h-6.032v2.016h7.257v2.208h-8.152c-.943 0-1.508-.768-1.508-1.392V1.752c0-.961.565-1.585 1.649-1.585zm27.353.011v9.007c0 .814.612 1.581 1.694 1.581h7.058V8.561h-6.352V.178h-2.401zm27.336 2.197v8.402h-2.403V2.375h-3.465V.165h9.38v2.209h-3.512zm11.115 8.409V2.37h3.515V.158h-9.389V2.37h3.468v8.413h2.406zM104.148.171h8.005 0v2.206h-7.252v1.967h6.028V6.55h-6.028v2.014h7.252v2.206h-8.147c-.942 0-1.507-.767-1.507-1.391V1.755c0-.96.565-1.583 1.649-1.583zm-18.26 10.616c-.709 0-1.393-1.082-1.535-1.611l-1.77-5.556-2.314 7.168h-1.463c-.709 0-1.323-1.106-1.464-1.635L74.463.156h2.407l2.22 7.264 2.36-7.216h2.265l2.36 7.216L88.295.156h2.409l-3.4 10.632h-1.416v-.001zM137.664.094a2.24 2.24 0 0 1 1.653.693c.454.462.683 1.021.683 1.677.009.634-.238 1.243-.683 1.686-.455.465-1.007.699-1.653.699s-1.197-.232-1.65-.699-.676-1.025-.676-1.686c-.009-.631.238-1.237.682-1.677a2.22 2.22 0 0 1 1.644-.693zm1.421 3.825a1.91 1.91 0 0 1-1.421.602c-.535.01-1.05-.209-1.42-.602-.381-.384-.592-.911-.582-1.457 0-.565.195-1.048.585-1.447s.863-.602 1.418-.602 1.029.201 1.42.602.585.881.585 1.447-.195 1.055-.585 1.457zM18.326 0L12 18.001v.001h2.672l3.093-8.664h.843c.561 0 .561.416.468.88l-2.765 7.784h2.765l2.812-7.969c.421-1.39-.422-2.085-2.062-2.085h-1.593L21.044 0h-2.718zm6.133 7.902h4.373c1.316 0 2.681.698 1.975 2.606l-2.022 5.676c-.376 1.07-.705 1.815-2.681 1.815h-2.472L20.838 26h-2.681l6.302-18.098zm3.621 2.094l-2.022 5.816c-.047.279-.283.791-.752.791h-1.186l2.55-7.305h1.176c.423 0 .376.326.235.698z" fill="#fff"/></svg>