<svg xmlns="http://www.w3.org/2000/svg" width="145" height="31" fill="none" xmlns:v="https://vecta.io/nano"><path fill-rule="evenodd" d="M15 15H0V0h15v15zm130-.939V11.54h-3.144V7.62l-.105.032-2.953.9-.058.018v2.97h-4.66V9.885c0-.77.173-1.36.514-1.753s.822-.586 1.44-.586c.444 0 .903.104 1.366.31l.116.052V5.252l-.055-.02c-.431-.155-1.018-.232-1.746-.232-.916 0-1.75.199-2.476.593a4.22 4.22 0 0 0-1.699 1.673c-.4.715-.602 1.541-.602 2.455v1.819h-2.189v2.521h2.189v10.622h3.142V14.061h4.66v6.75c0 2.78 1.316 4.189 3.913 4.189a6.45 6.45 0 0 0 1.334-.147c.467-.1.785-.2.972-.307l.041-.024v-2.545l-.128.084c-.17.113-.383.206-.632.274s-.459.105-.62.105c-.609 0-1.059-.163-1.338-.485s-.425-.893-.425-1.689v-6.205H145zm-23.268 8.38c-1.14 0-2.04-.377-2.673-1.119s-.961-1.809-.961-3.16c0-1.394.323-2.484.961-3.243.634-.754 1.525-1.136 2.647-1.136 1.09 0 1.957.365 2.579 1.087s.941 1.807.941 3.217c0 1.427-.298 2.523-.886 3.257-.583.728-1.461 1.098-2.608 1.098zm-4.996-9.33c1.232-1.252 2.96-1.887 5.136-1.887 2.049 0 3.675.607 4.831 1.806s1.741 2.865 1.741 4.955c0 2.116-.624 3.833-1.856 5.101s-2.925 1.914-5.034 1.914c-2.024 0-3.66-.611-4.863-1.817s-1.811-2.861-1.811-4.919c0-2.167.624-3.9 1.856-5.153zm-6.922-1.887c-1.48 0-2.705.377-3.64 1.121-.941.748-1.418 1.729-1.418 2.916 0 .617.103 1.165.306 1.63a3.27 3.27 0 0 0 .939 1.222c.416.342 1.058.7 1.909 1.064l1.589.737c.331.192.566.384.699.572s.195.435.195.745c0 .883-.664 1.313-2.03 1.313-.507 0-1.085-.105-1.718-.313-.628-.205-1.222-.504-1.759-.888l-.13-.093v3.013l.047.022c.445.204 1.006.377 1.666.513s1.259.205 1.779.205c1.606 0 2.9-.379 3.843-1.127.95-.753 1.432-1.757 1.432-2.985 0-.886-.26-1.646-.77-2.258s-1.388-1.166-2.616-1.659c-.978-.391-1.605-.716-1.863-.965-.25-.241-.376-.581-.376-1.012 0-.382.156-.688.477-.936s.773-.376 1.337-.376a5.5 5.5 0 0 1 1.592.244c.532.161 1 .378 1.39.642l.128.087v-2.858l-.049-.021c-.36-.154-.835-.285-1.412-.392a8.64 8.64 0 0 0-1.547-.16zM93.891 21.322c.633.742 1.533 1.119 2.673 1.119 1.148 0 2.025-.37 2.608-1.098.587-.733.885-1.83.885-3.257 0-1.41-.316-2.492-.941-3.217s-1.489-1.087-2.578-1.087c-1.123 0-2.014.383-2.647 1.136-.638.759-.961 1.85-.961 3.243 0 1.351.322 2.414.96 3.16zm2.813-10.099c-2.176 0-3.905.635-5.136 1.887s-1.856 2.986-1.856 5.153c0 2.059.61 3.713 1.812 4.919s2.838 1.817 4.862 1.817c2.109 0 3.803-.644 5.035-1.914s1.855-2.985 1.855-5.101c0-2.09-.585-3.758-1.741-4.955s-2.781-1.806-4.83-1.806zm-11.762.317v2.276h.033c.29-.739.669-1.331 1.194-1.763a3.19 3.19 0 0 1 2.076-.741c.517 0 .926.062 1.215.184l.05.021v3.117l-.13-.094c-.144-.103-.387-.201-.724-.291s-.654-.137-.933-.137c-.825 0-1.5.355-2.007 1.056-.513.709-.774 1.649-.774 2.792v6.723h-3.104V11.54h3.104zm-8.662-.317c-1.424 0-2.694.304-3.774.904a6.1 6.1 0 0 0-2.489 2.55c-.567 1.088-.855 2.359-.855 3.777 0 1.242.279 2.381.831 3.386s1.334 1.793 2.323 2.339 2.129.822 3.393.822c1.475 0 2.734-.294 3.744-.873l.041-.023v-2.832l-.131.095a5.84 5.84 0 0 1-1.518.788c-.549.191-1.049.287-1.487.287-1.218 0-2.196-.38-2.905-1.128s-1.072-1.802-1.072-3.125c0-1.332.376-2.412 1.117-3.208s1.718-1.197 2.911-1.197c1.02 0 2.014.344 2.955 1.024l.13.094v-2.984l-.042-.024c-.354-.197-.837-.36-1.436-.484a8.61 8.61 0 0 0-1.735-.185zm-12.36.317h3.104v13.143H63.92V11.54zm1.584-5.599c-.511 0-.956.173-1.323.516a1.7 1.7 0 0 0-.554 1.289 1.65 1.65 0 0 0 .548 1.264c.362.334.809.503 1.328.503s.968-.169 1.334-.503.555-.761.555-1.265c0-.494-.182-.923-.54-1.275s-.812-.53-1.349-.53zm-7.744 18.741V10.57h-.102l-5.621 14.112h-2.246l-5.711-14.114h-.102v14.114H41V6.343h4.563l5.408 13.622 5.572-13.622h4.384v18.339h-3.168zM16 15h15V0H16v15zm-1 16H0V16h15v15zm1 0h15V16H16v15z" fill="#fff"/></svg>