<svg xmlns="http://www.w3.org/2000/svg" width="106" height="106" fill="none" xmlns:v="https://vecta.io/nano"><circle cx="53" cy="53" r="53" fill="#36536b"/><path fill-rule="evenodd" d="M59.994 31.38l-3.103 9.044H39.218l-3.103-9.044L41.257 28l3.398 2.233L48.054 28l3.398 2.233L54.851 28l5.143 3.38zM39.801 43.336h16.506v2.913H39.801v-2.913zm15.147 16.895h7.404c-.153-.427-.328-.849-.526-1.266l-4.668-9.803H38.951l-4.668 9.803a13.04 13.04 0 0 0 11.835 18.743h3.874c.69 0 1.373-.054 2.044-.157V68.97h2.913v-8.739zm-3.285 4.654c-.184.373-.425.678-.725.916a3.16 3.16 0 0 1-1.026.539c-.385.121-.783.195-1.194.222v1.63h-1.073v-1.657a8.76 8.76 0 0 1-1.838-.364 7.56 7.56 0 0 1-1.637-.715l1.127-2.304a7.98 7.98 0 0 0 .778.431 7.63 7.63 0 0 0 .812.344 4.6 4.6 0 0 0 .946.235v-1.185a9.69 9.69 0 0 1-.832-.256c-.42-.144-.783-.298-1.087-.465s-.555-.355-.751-.566-.342-.451-.436-.721-.141-.58-.141-.93c0-.485.081-.914.242-1.287s.38-.694.657-.963.602-.485.973-.647.767-.265 1.187-.31v-1.361h1.073v1.374c.295.036.581.09.859.162a8.35 8.35 0 0 1 .798.249l.718.297.617.29-1.127 2.169c-.197-.126-.411-.242-.644-.351-.197-.099-.418-.191-.664-.276s-.494-.15-.745-.195v1.212a2.37 2.37 0 0 1 .255.074l.282.088c.438.135.834.283 1.187.444s.655.353.906.573.443.488.577.802.201.696.201 1.146c0 .53-.092.981-.275 1.353zm-4.367-5.275c0 .135.045.245.134.33a1.26 1.26 0 0 0 .402.236v-1.024c-.358.045-.537.197-.537.458zm1.234 3.598v.997c.215-.018.367-.063.456-.135s.134-.166.134-.283c0-.126-.053-.236-.161-.33s-.25-.177-.429-.249zm9.331-.064h15.05v5.826h-15.05v-5.826zm12.137 8.739h-15.05v5.826h15.05v-5.826z" fill="#edf3f8"/></svg>