<svg xmlns="http://www.w3.org/2000/svg" width="137" height="26" fill="none" xmlns:v="https://vecta.io/nano"><path fill-rule="evenodd" d="M14.541 0v3.501l.689-.043c8.856-.304 14.641 7.321 14.641 7.321s-6.632 8.131-13.536 8.131c-.603 0-1.191-.058-1.78-.159v2.17c.488.058.991.101 1.479.101 6.431 0 11.081-3.313 15.589-7.22.337.274 1.144.722 1.987 1.19 1.025.569 2.102 1.166 2.449 1.516-4.277 3.617-14.254 6.525-19.909 6.525-.545 0-1.062-.029-1.579-.087V26H39V0H14.541zm0 7.755V5.412l.014-.001V5.41c.225-.014.45-.028.675-.028 6.373-.203 10.55 5.527 10.55 5.527s-4.507 6.308-9.344 6.308c-.646 0-1.278-.101-1.88-.304V9.795c2.338.286 2.92 1.277 4.214 3.482l.25.425 3.316-2.807s-2.426-3.198-6.502-3.198a9.65 9.65 0 0 0-1.292.058zm0 0v2.026h-.014c-2.483-.304-4.435 2.04-4.435 2.04s1.105 3.95 4.45 5.093v1.852c-5.943-1.071-7.593-7.307-7.593-7.307s2.856-3.183 7.593-3.704zm.014-2.345l-.014.001h0v.001c-7.038.556-10.55 5.786-10.55 5.786s2.684 8.739 10.55 9.723v2.026C3.818 21.934 0 10.794 0 10.794s6.746-6.655 14.555-7.292V5.41zM46 5v16.986h4.852V8.797l3.783.014c1.242 0 2.108.302 2.7.935.765.805 1.069 2.114 1.069 4.487v7.752h4.707v-9.377C63.111 5.906 58.823 5 54.635 5H46zm37.832.029V22h4.808V5.029h-4.808zM91.587 22V5.029h6.743c3.841 0 6.411.46 8.173 2.833.996 1.323 1.56 3.452 1.56 5.839 0 2.603-.665 4.991-1.704 6.069C104.9 21.31 103.543 22 99.384 22h-7.798zm4.765-13.289h2.065c3.003 0 4.938 1.338 4.938 4.818s-1.935 4.833-4.938 4.833h-2.065V8.711zm-23.465 9.766l4.014-13.448h4.91L76.266 22h-6.931L63.848 5.029h5.198l3.841 13.448zM110.315 22h4.809V5.029h-4.809V22zm6.772-.014l6.715-16.957h6.426L137 21.971h-5.155l-1.011-2.991h-7.942l-1.068 3.006h-4.737zm9.834-13.865l2.917 7.939h-5.921l3.004-7.939z" fill="#fff"/></svg>