<svg xmlns="http://www.w3.org/2000/svg" width="106" height="106" fill="none" xmlns:v="https://vecta.io/nano"><circle cx="53" cy="53" r="53" fill="#36536b"/><path fill-rule="evenodd" d="M41.371 50.762c-.632.609-1.488.989-2.434.989a3.52 3.52 0 0 1-3.516-3.516 3.52 3.52 0 0 1 3.516-3.516 3.52 3.52 0 0 1 3.516 3.516 2.34 2.34 0 0 1-.029.323l-.014.103 3.469 1.734c.632-.609 1.488-.989 2.434-.989.541 0 1.048.133 1.506.352l4.706-4.706c-.219-.458-.352-.965-.352-1.506a3.52 3.52 0 0 1 3.516-3.516 3.49 3.49 0 0 1 1.946.592l4.089-3.066c-.104-.331-.175-.676-.175-1.041A3.52 3.52 0 0 1 67.063 33a3.52 3.52 0 0 1 3.516 3.516 3.52 3.52 0 0 1-3.516 3.516 3.49 3.49 0 0 1-1.946-.591l-4.089 3.066c.104.331.175.676.175 1.041a3.52 3.52 0 0 1-3.516 3.516c-.541 0-1.048-.133-1.506-.352l-4.706 4.706c.219.458.352.965.352 1.506a3.52 3.52 0 0 1-3.516 3.516 3.52 3.52 0 0 1-3.516-3.516 2.34 2.34 0 0 1 .029-.323l.014-.103-3.469-1.734zm29.207 19.895h1.25a1.17 1.17 0 1 1 0 2.344H34.172a1.17 1.17 0 1 1 0-2.344h1.25V57.609a1.17 1.17 0 0 1 1.172-1.172h4.687a1.17 1.17 0 0 1 1.172 1.172v13.047h2.344v-8.359a1.17 1.17 0 0 1 1.172-1.172h4.687a1.17 1.17 0 0 1 1.172 1.172v8.359h2.344V52.922a1.17 1.17 0 0 1 1.172-1.172h4.687a1.17 1.17 0 0 1 1.172 1.172v17.734h2.344V45.891a1.17 1.17 0 0 1 1.172-1.172h4.687a1.17 1.17 0 0 1 1.172 1.172v24.766z" fill="#fff"/></svg>